<svg xmlns="http://www.w3.org/2000/svg" viewBox="0 0 841.9 595.3"><g fill="#61dafb"><path d="M666.3 296.5c0 32.5-26.3 58.8-58.8 58.8s-58.8-26.3-58.8-58.8 26.3-58.8 58.8-58.8 58.8 26.3 58.8 58.8z"/><path d="M520.5 78.1C478.6 58.3 430 47.2 377.9 47.2c-52 0-100.7 11.1-142.5 30.9-42 20-76.1 47.3-99.8 79.7-24 33.1-36.9 69-36.9 105.2s12.9 72.1 36.9 105.2c23.7 32.4 57.8 59.7 99.8 79.7 41.9 19.8 90.5 30.9 142.5 30.9 52 0 100.7-11.1 142.5-30.9 42-20 76.1-47.3 99.8-79.7 24-33.1 36.9-69 36.9-105.2s-12.9-72.1-36.9-105.2c-23.7-32.4-57.8-59.7-99.8-79.7zM377.9 531.6c-48.4 0-94.1-10.3-131.7-28.9-37.6-18.6-66.6-43.2-86.4-71.9-20.1-29.3-30.7-60.7-30.7-92.9s10.6-63.6 30.7-92.9c19.8-28.7 48.8-53.3 86.4-71.9 37.6-18.6 83.3-28.9 131.7-28.9 48.4 0 94.1 10.3 131.7 28.9 37.6 18.6 66.6 43.2 86.4 71.9 20.1 29.3 30.7 60.7 30.7 92.9s-10.6 63.6-30.7 92.9c-19.8 28.7-48.8 53.3-86.4 71.9-37.6 18.6-83.3 28.9-131.7 28.9z"/></g></svg>
